<?xml version="1.0" encoding="UTF-8"?>
<svg xmlns="http://www.w3.org/2000/svg" xmlns:xlink="http://www.w3.org/1999/xlink" width="100px" height="100px" viewBox="0 0 100 100" version="1.1">
<defs>
<linearGradient id="linear0" gradientUnits="userSpaceOnUse" x1="13.25" y1="13.02" x2="8.62" y2="4.25" gradientTransform="matrix(5.555556,0,0,5.555556,0,0)">
<stop offset="0" style="stop-color:rgb(9.803922%,53.333333%,85.098039%);stop-opacity:1;"/>
<stop offset="0.9" style="stop-color:rgb(32.941176%,68.235294%,94.117647%);stop-opacity:1;"/>
</linearGradient>
<linearGradient id="linear1" gradientUnits="userSpaceOnUse" x1="11.26" y1="10.47" x2="14.46" y2="15.99" gradientTransform="matrix(5.555556,0,0,5.555556,0,0)">
<stop offset="0.1" style="stop-color:rgb(32.941176%,68.235294%,94.117647%);stop-opacity:1;"/>
<stop offset="0.29" style="stop-color:rgb(30.980392%,67.058824%,93.333333%);stop-opacity:1;"/>
<stop offset="0.51" style="stop-color:rgb(25.490196%,63.529412%,91.372549%);stop-opacity:1;"/>
<stop offset="0.74" style="stop-color:rgb(16.470588%,57.647059%,87.843137%);stop-opacity:1;"/>
<stop offset="0.88" style="stop-color:rgb(9.803922%,53.333333%,85.098039%);stop-opacity:1;"/>
</linearGradient>
</defs>
<g id="surface1">
<path style=" stroke:none;fill-rule:nonzero;fill:rgb(31.372549%,90.196078%,100%);fill-opacity:1;" d="M 5.609375 56.609375 L 49.609375 85.167969 L 94.390625 56.5 L 100 63.054688 L 49.609375 95.5 L 0 63.054688 Z M 5.609375 56.609375 "/>
<path style=" stroke:none;fill-rule:nonzero;fill:rgb(100%,100%,100%);fill-opacity:1;" d="M 8.945312 52.945312 L 49.609375 4.5 L 91.109375 53 L 49.609375 79.222656 Z M 8.945312 52.945312 "/>
<path style=" stroke:none;fill-rule:nonzero;fill:rgb(31.372549%,90.196078%,100%);fill-opacity:1;" d="M 49.609375 4.5 L 49.609375 79.222656 L 8.945312 52.945312 Z M 49.609375 4.5 "/>
<path style=" stroke:none;fill-rule:nonzero;fill:url(#linear0);" d="M 49.609375 4.5 L 49.609375 79.222656 L 91.109375 53 Z M 49.609375 4.5 "/>
<path style=" stroke:none;fill-rule:nonzero;fill:rgb(32.54902%,69.411765%,87.843137%);fill-opacity:1;" d="M 49.609375 43.109375 L 91.109375 53 L 49.609375 79.222656 Z M 49.609375 43.109375 "/>
<path style=" stroke:none;fill-rule:nonzero;fill:rgb(61.176471%,92.156863%,100%);fill-opacity:1;" d="M 49.609375 79.222656 L 8.945312 52.945312 L 49.609375 43.109375 Z M 49.609375 79.222656 "/>
<path style=" stroke:none;fill-rule:nonzero;fill:url(#linear1);" d="M 49.609375 95.5 L 100 63.054688 L 94.390625 56.5 L 49.609375 85.167969 Z M 49.609375 95.5 "/>
</g>
</svg>
