<svg width="125" height="32" viewBox="0 0 125 32" fill="none" xmlns="http://www.w3.org/2000/svg">
<g clip-path="url(#clip0_11500_59)">
<path fill-rule="evenodd" clip-rule="evenodd" d="M10.6554 4.71094C10.0874 3.35083 9.02557 2.67077 7.46986 2.67077C6.44506 2.67077 5.02517 3.09117 5.02517 4.34C5.02517 5.94741 7.45751 6.44199 8.65516 6.66456C11.3962 7.18387 14.1619 8.0494 14.1619 11.326C14.1619 14.714 10.8159 16.0617 7.93904 16.0617C6.44506 16.0741 4.96343 15.7031 3.65466 14.9736C2.33354 14.2688 1.38283 13.0324 0.777832 11.3137L3.70405 10.4111C4.43252 12.2287 5.8771 13.3291 8.01312 13.3291C9.17373 13.3291 11.1122 12.9458 11.1122 11.4497C11.0998 9.75573 8.80332 9.39715 7.54394 9.22405C3.85221 8.66763 2.00018 7.0355 2.00018 4.32764C2.00018 1.33538 5.07456 0 7.63037 0C10.285 0 12.5815 1.24883 13.4705 3.84541L10.6554 4.71094Z" fill="#1F1B1A"/>
<path fill-rule="evenodd" clip-rule="evenodd" d="M16.1372 15.8515V0.222565H18.9893V7.17151C19.6561 5.76194 20.9525 5.05715 22.4835 5.05715C24.9529 5.05715 26.3604 6.63983 26.3604 9.07567V15.8639H23.533V9.731C23.533 8.32143 22.8416 7.40644 21.3723 7.40644C19.7178 7.40644 18.9893 8.87784 18.9893 10.3492V15.8391L16.1372 15.8515Z" fill="#1F1B1A"/>
<path d="M28.3115 10.6089C28.3115 7.55482 30.3117 5.04479 33.4355 5.04479C34.7319 5.04479 36.1518 5.53938 36.8185 6.71402V5.26735H39.6707V15.8515H36.9297V14.2936C36.1518 15.4806 35.0159 16.0741 33.4725 16.0741C30.2747 16.0741 28.3115 13.6382 28.3115 10.6089ZM36.9297 10.6089C36.9297 8.86547 35.7691 7.50536 34.0034 7.50536C32.2255 7.50536 31.1513 8.93966 31.1513 10.6089C31.1513 12.2781 32.3119 13.6506 34.0034 13.6506C35.7814 13.6382 36.942 12.3029 36.9297 10.6089Z" fill="#1F1B1A"/>
<path fill-rule="evenodd" clip-rule="evenodd" d="M45.2021 5.26735V6.62747C45.6713 5.57647 46.6096 5.04479 47.7456 5.04479C49.647 5.04479 50.7829 6.31835 50.7829 8.17305C50.7829 8.61818 50.7335 9.06331 50.6224 9.49607H47.9308C47.9925 9.23641 48.0295 8.96439 48.0172 8.69237C48.0172 7.86393 47.4863 7.36935 46.6837 7.36935C45.6589 7.36935 45.2144 8.0865 45.2144 9.03858V15.8515H42.3623V5.26735H45.2021Z" fill="#1F1B1A"/>
<path d="M59.7962 11.8083L62.2286 12.7727C61.426 14.986 59.6234 16.0741 57.3021 16.0741C53.9314 16.0741 51.709 13.7742 51.709 10.4976C51.709 7.39408 53.8697 5.04479 56.9688 5.04479C59.9073 5.04479 61.8705 6.87476 61.8705 9.80519C61.8705 10.238 61.8335 10.6707 61.7347 11.1035H54.5611C54.6105 12.6862 55.8082 13.6259 57.3515 13.6259C58.648 13.6135 59.4752 13.02 59.7962 11.8083ZM54.5611 9.19932H59.0801L59.1048 9.11277C59.1171 8.61818 58.9072 8.13596 58.5245 7.81448C58.117 7.50536 57.6108 7.34462 56.9688 7.34462C55.8205 7.34462 54.8328 8.03704 54.5611 9.19932Z" fill="#1F1B1A"/>
<path d="M82.0327 10.6089C82.0327 7.55482 84.0329 5.04479 87.1567 5.04479C88.4531 5.04479 89.873 5.53938 90.5397 6.71402V5.26735H93.3919V15.8515H90.6632V14.2936C89.8853 15.4806 88.7494 16.0741 87.2061 16.0741C83.9959 16.0741 82.0327 13.6382 82.0327 10.6089ZM90.6632 10.6089C90.6632 8.86547 89.5026 7.50536 87.737 7.50536C85.959 7.50536 84.8849 8.93966 84.8849 10.6089C84.8849 12.2781 86.0455 13.6506 87.737 13.6506C89.5026 13.6382 90.6632 12.3029 90.6632 10.6089Z" fill="#1F1B1A"/>
<path fill-rule="evenodd" clip-rule="evenodd" d="M97.5897 12.2781V7.60426H95.4043V5.26734H97.5897V1.7805H100.417V5.26734H104.38V7.60426H100.417V12.2657C100.417 13.02 100.837 13.5393 101.627 13.5393C102.368 13.5393 102.788 13.0447 102.874 12.0679L105.504 12.5625C105.195 14.7634 103.813 16.0741 101.553 16.0741C99.1454 16.0741 97.5897 14.7634 97.5897 12.2781Z" fill="#1F1B1A"/>
<path d="M114.777 11.8083L117.209 12.7727C116.406 14.986 114.604 16.0741 112.283 16.0741C108.912 16.0741 106.689 13.7742 106.689 10.4976C106.689 7.39408 108.85 5.04479 111.949 5.04479C114.888 5.04479 116.851 6.87476 116.851 9.80519C116.851 10.238 116.814 10.6707 116.715 11.1035H109.542C109.579 12.6862 110.789 13.6259 112.332 13.6259C113.616 13.6259 114.443 13.02 114.777 11.8083ZM109.542 9.19932H114.061L114.085 9.11277C114.098 8.61818 113.888 8.13596 113.505 7.81448C113.098 7.50536 112.591 7.34462 111.949 7.34462C110.776 7.34462 109.801 8.03704 109.542 9.19932Z" fill="#1F1B1A"/>
<path fill-rule="evenodd" clip-rule="evenodd" d="M124.778 4.98297C124.778 6.42964 123.617 7.59192 122.173 7.59192C120.728 7.59192 119.567 6.42964 119.567 4.98297C119.567 3.53631 120.728 2.37403 122.173 2.37403C123.605 2.37403 124.778 3.54867 124.778 4.98297Z" fill="#1F1B1A"/>
<path fill-rule="evenodd" clip-rule="evenodd" d="M123.926 11.9072C123.926 12.884 123.136 13.663 122.173 13.663C121.21 13.663 120.419 12.8716 120.419 11.9072C120.419 10.9428 121.21 10.1514 122.173 10.1514C122.642 10.1514 123.086 10.3369 123.42 10.6707C123.753 11.0046 123.926 11.4373 123.926 11.9072Z" fill="#1F1B1A"/>
<path fill-rule="evenodd" clip-rule="evenodd" d="M71.5749 10.2009H76.1062C75.7234 12.0926 73.8961 13.2797 72.0317 13.2797C69.019 13.2797 67.0806 11.0417 67.0806 8.03704C67.0806 5.13134 69.0437 2.79442 72.0687 2.79442C73.9208 2.79442 75.3407 3.5363 76.1309 4.95823L79.0818 4.04325C77.8224 1.31066 75.2172 0 72.044 0C67.5374 0 64.0186 3.43738 64.0186 8.03704C64.0186 12.5254 67.1176 16.0741 71.7724 16.0741C74.2912 16.0741 76.3161 14.986 77.3285 12.612V15.8515H79.8102V7.59191H71.5872L71.5749 10.2009Z" fill="#1F1B1A"/>
<path d="M65.8484 28.5021C65.2467 28.5021 64.6451 28.2013 64.4302 27.8145V28.4162H63.6137V22.3998H64.4302V24.7204C64.6451 24.3337 65.1608 24.0328 65.7624 24.0328C66.8368 24.0328 67.6962 24.8493 67.6962 26.2675C67.6962 27.6856 66.9227 28.5021 65.8484 28.5021ZM65.6421 27.8145H65.7108C66.364 27.8145 66.8797 27.2988 66.8797 26.2675C66.8797 25.2361 66.364 24.7204 65.7108 24.7204H65.6421C65.0319 24.7204 64.4302 25.2361 64.4302 26.2675C64.4302 27.2988 65.0319 27.8145 65.6421 27.8145ZM71.3145 24.1188H72.1568L70.3948 28.3216V29.1037C70.3948 29.7054 70.094 30.0062 69.4924 30.0062H68.0743V29.2756H69.2775C69.5354 29.2756 69.6213 29.1897 69.6213 28.9318V28.3302L67.8164 24.1188H68.6845L70.0253 27.2903L71.3145 24.1188Z" fill="#171417"/>
<g clip-path="url(#clip1_11500_59)">
<path d="M87.9819 23.9218C86.137 23.9218 84.8357 25.1461 84.8357 27.0377C84.8357 28.8964 86.0478 30.2314 87.9819 30.2314C89.8371 30.2314 91.1275 28.9743 91.1275 27.0377C91.1275 25.2352 89.906 23.9218 87.9819 23.9218ZM87.9819 28.796C87.1145 28.796 86.5587 28.1057 86.5587 27.0377C86.5587 26.0142 87.1145 25.3572 87.9819 25.3572C88.8492 25.3572 89.4055 26.0142 89.4055 27.0377C89.4069 28.1057 88.8511 28.796 87.9833 28.796H87.9819ZM102.192 23.9218H100.089L97.811 26.3338V22.2118H96.0984V30.0864H97.8124V28.3033L98.6872 27.4389L100.347 30.0846H102.317L99.8885 26.2587L102.192 23.9218ZM102.838 30.0864H104.551V22.2118H102.839L102.838 30.0864ZM116.271 25.0072C115.913 24.354 115.159 23.9218 114.249 23.9218C112.692 23.9218 111.579 25.2019 111.579 27.0494C111.579 28.9297 112.692 30.2314 114.271 30.2314C115.061 30.2314 115.717 29.9091 116.095 29.3746V30.0864H117.808V24.0668H116.413L116.271 25.0072ZM114.704 28.818C113.881 28.818 113.314 28.0832 113.312 27.0316C113.312 26.0029 113.88 25.2789 114.704 25.2789C115.528 25.2789 116.095 25.9917 116.095 27.009C116.095 28.0714 115.527 28.8176 114.704 28.818ZM122.108 23.9232C121.198 23.9232 120.444 24.3535 120.087 25.0076L119.946 24.0691H118.551V31.94H120.264V29.376C120.642 29.91 121.301 30.2328 122.088 30.2328C123.668 30.2328 124.779 28.9307 124.779 27.0503C124.778 25.2033 123.666 23.9232 122.108 23.9232ZM121.651 28.8185C120.827 28.8185 120.26 28.0836 120.26 27.0353C120.26 26.0344 120.827 25.3328 121.651 25.3328C122.475 25.3328 123.043 26.0452 123.043 27.0578C123.043 28.0949 122.475 28.8185 121.651 28.8185ZM108.165 23.9218C106.375 23.9218 105.118 25.2235 105.118 27.1029C105.118 28.949 106.42 30.2277 108.274 30.2314C109.574 30.2314 110.545 29.6101 110.964 28.5083L109.419 28.1517C109.252 28.574 108.776 28.818 108.232 28.818C107.431 28.818 106.928 28.2723 106.807 27.4713H111.067L111.08 27.3112C111.103 27.0686 111.103 26.8242 111.08 26.5815C110.911 24.9124 109.724 23.9218 108.165 23.9218ZM106.872 26.4464C107.042 25.7251 107.56 25.2789 108.18 25.2789C108.834 25.2789 109.298 25.6688 109.388 26.4464H106.872ZM93.1938 25.2465L93.0151 24.0649H91.6196V30.0864H93.3327V27.1822C93.3327 26.1691 94.0447 25.5684 95.2456 25.5684H95.5017V23.9218H95.33C94.2549 23.9218 93.6019 24.3469 93.1938 25.2465ZM83.3009 24.0649L81.8937 28.3455L80.5671 24.0668H78.8958L77.565 29.3619L76.146 24.0668H74.3452L76.5119 31.9414H78.3727L79.7331 26.6205L81.0184 30.2338H83.0063L85.1026 24.0691L83.3009 24.0649Z" fill="#171417"/>
</g>
</g>
<defs>
<clipPath id="clip0_11500_59">
<rect width="124" height="32" fill="white" transform="translate(0.777832)"/>
</clipPath>
<clipPath id="clip1_11500_59">
<rect width="50.4327" height="9.72915" fill="white" transform="translate(74.3452 22.2116)"/>
</clipPath>
</defs>
</svg>
